<svg xmlns="http://www.w3.org/2000/svg" xmlns:xlink="http://www.w3.org/1999/xlink" width="95" height="95" viewBox="0 0 95 95">
    <defs>
        <path id="3803ydj5ja" d="M0 0L94.434 0 94.434 94.434 0 94.434z"/>
    </defs>
    <g fill="none" fill-rule="evenodd">
        <g>
            <g>
                <g transform="translate(-980 -603) translate(980 603)">
                    <mask id="42fr9kfh3b" fill="#fff">
                        <use xlink:href="#3803ydj5ja"/>
                    </mask>
                    <path fill="#27D980" d="M94.434 47.217c0 26.077-21.14 47.217-47.217 47.217C21.14 94.434 0 73.294 0 47.217 0 21.14 21.14 0 47.217 0 73.294 0 94.434 21.14 94.434 47.217" mask="url(#42fr9kfh3b)"/>
                </g>
                <path fill="#FFF" d="M52.615 37.867l-3.744 1.547v16.767l1.217-.502c3.318-1.372 7.008-1.428 10.357-.17V38.73l-2.09-.864c-1.844-.762-3.895-.762-5.74 0m-16.535 0l-2.09.864v16.777c3.349-1.257 7.039-1.2 10.357.171l1.217.502V39.416l-3.744-1.548c-1.844-.764-3.895-.764-5.74 0m7.004-3.056l4.134 1.709 4.133-1.71c2.654-1.096 5.615-1.096 8.268 0l3.095 1.28c.627.258 1.039.887 1.039 1.587v20.244c0 .943-.741 1.708-1.654 1.708-.211 0-.42-.041-.614-.123l-1.866-.771c-2.653-1.097-5.614-1.097-8.268 0l-4.133 1.709-4.134-1.71c-2.654-1.096-5.615-1.096-8.268 0l-1.866.773c-.848.35-1.81-.077-2.15-.954-.078-.2-.118-.416-.118-.633V37.678c0-.7.412-1.328 1.04-1.586l3.094-1.28c2.653-1.097 5.614-1.097 8.268 0" transform="translate(-980 -603) translate(980 603)"/>
            </g>
        </g>
    </g>
</svg>
