<svg xmlns="http://www.w3.org/2000/svg" width="130" height="36" viewBox="0 0 130 36">
    <g fill="none" fill-rule="evenodd">
        <g fill="#7289DA" fill-rule="nonzero">
            <g>
                <g>
                    <path d="M18.973 14.906c-1.021 0-1.827.878-1.827 1.971s.824 1.97 1.827 1.97c1.021 0 1.828-.877 1.828-1.97s-.824-1.97-1.828-1.97zm-6.54 0c-1.02 0-1.827.878-1.827 1.971s.825 1.97 1.828 1.97c1.021 0 1.827-.877 1.827-1.97.018-1.093-.806-1.97-1.827-1.97z" transform="translate(-429 -1168) translate(429 1168)"/>
                    <path d="M27.68 0H3.674C1.648 0 0 1.648 0 3.673V27.68c0 2.024 1.648 3.672 3.673 3.672H23.99l-.95-3.278 2.294 2.114 2.167 1.989 3.87 3.35V3.673C31.353 1.648 29.705 0 27.681 0zm-6.915 23.201s-.645-.77-1.183-1.433c2.347-.663 3.243-2.114 3.243-2.114-.734.484-1.433.824-2.06 1.057-.896.376-1.756.61-2.598.77-1.72.323-3.297.233-4.64-.017-1.021-.197-1.9-.466-2.634-.77-.412-.162-.86-.36-1.308-.61-.054-.036-.107-.054-.161-.09-.036-.017-.054-.035-.072-.035-.322-.18-.501-.305-.501-.305s.86 1.415 3.135 2.096c-.538.681-1.2 1.47-1.2 1.47-3.96-.126-5.465-2.706-5.465-2.706 0-5.715 2.58-10.356 2.58-10.356 2.58-1.917 5.017-1.863 5.017-1.863l.179.215c-3.225.914-4.694 2.33-4.694 2.33s.394-.216 1.057-.502c1.917-.842 3.44-1.057 4.067-1.13.107-.017.197-.035.304-.035 1.093-.143 2.33-.18 3.62-.036 1.701.197 3.529.699 5.392 1.702 0 0-1.415-1.343-4.461-2.257l.25-.287s2.455-.054 5.017 1.863c0 0 2.58 4.64 2.58 10.356 0-.018-1.505 2.562-5.464 2.687zM47.818 7.668H41.87v6.683l3.96 3.565v-6.485h2.114c1.343 0 2.006.645 2.006 1.684v4.962c0 1.04-.627 1.738-2.006 1.738h-6.092v3.78H47.8c3.19.019 6.182-1.576 6.182-5.23v-5.34c.017-3.726-2.975-5.357-6.164-5.357zm31.175 10.696v-5.482c0-1.971 3.547-2.419 4.622-.448l3.279-1.326c-1.29-2.83-3.637-3.655-5.59-3.655-3.19 0-6.343 1.846-6.343 5.429v5.482c0 3.62 3.154 5.429 6.271 5.429 2.007 0 4.407-.986 5.733-3.566l-3.511-1.612c-.86 2.204-4.461 1.666-4.461-.25zm-10.84-4.73c-1.236-.269-2.06-.716-2.114-1.487.072-1.845 2.92-1.917 4.587-.143l2.633-2.025c-1.648-2.006-3.511-2.544-5.428-2.544-2.92 0-5.751 1.649-5.751 4.766 0 3.028 2.329 4.658 4.89 5.052 1.309.18 2.76.699 2.724 1.595-.107 1.702-3.619 1.612-5.214-.323l-2.544 2.383c1.487 1.917 3.512 2.885 5.411 2.885 2.92 0 6.163-1.684 6.289-4.766.179-3.888-2.652-4.873-5.483-5.393zM56.15 23.578h4.014V7.668h-4.014v15.91zm67.67-15.91h-5.948v6.683l3.96 3.565v-6.485h2.113c1.344 0 2.007.645 2.007 1.684v4.962c0 1.04-.627 1.738-2.007 1.738h-6.091v3.78h5.966c3.189.019 6.181-1.576 6.181-5.23v-5.34c0-3.726-2.992-5.357-6.181-5.357zm-29.186-.215c-3.296 0-6.575 1.792-6.575 5.465v5.428c0 3.637 3.297 5.465 6.611 5.465 3.297 0 6.575-1.828 6.575-5.465v-5.428c0-3.655-3.314-5.465-6.61-5.465zm2.58 10.893c0 1.147-1.29 1.738-2.562 1.738-1.29 0-2.58-.555-2.58-1.738v-5.428c0-1.165 1.255-1.792 2.509-1.792 1.308 0 2.633.555 2.633 1.792v5.428zm18.436-5.428c-.09-3.727-2.634-5.232-5.912-5.232h-6.36v15.91h4.066v-5.053h.717l3.69 5.053h5.017l-4.335-5.465c1.917-.609 3.117-2.275 3.117-5.213zm-5.84 2.15h-2.366V11.43h2.365c2.527 0 2.527 3.637 0 3.637z" transform="translate(-429 -1168) translate(429 1168)"/>
                </g>
            </g>
        </g>
    </g>
</svg>
