<svg xmlns="http://www.w3.org/2000/svg" xmlns:xlink="http://www.w3.org/1999/xlink" width="152" height="30" viewBox="0 0 152 30">
    <defs>
        <path id="ri6gg8wy0a" d="M0 0L33.395 0 33.395 14.269 0 14.269z"/>
        <path id="43yyp56iwc" d="M0 0L8.768 0 8.768 13.356 0 13.356z"/>
    </defs>
    <g fill="none" fill-rule="evenodd">
        <g>
            <g>
                <g>
                    <g transform="translate(-904 -1171) translate(904 1171)">
                        <mask id="ugv1wq2f3b" fill="#fff">
                            <use xlink:href="#ri6gg8wy0a"/>
                        </mask>
                        <path fill="#0090BE" d="M33.273 7.245C31.927 5.994 25.95.725 20.099.091 14.88-.474 5.344 1.838.345.193.158.13-.028.286.003.48.367 2.764 2.425 13.314 9.55 14.127c4.939.563 6.98-.763 10.723-.276.22.029.41-.164.37-.382-.207-1.117-2.098-2.505-6.312-3.025-3.591-.443-2.156-5.091.554-5.697 12.3-2.749 15.361 5.849 18.39 3.053.162-.149.159-.405-.002-.555" mask="url(#ugv1wq2f3b)"/>
                    </g>
                    <path fill="#0090BE" d="M26.3 7.119c-.847-.866-2.763-1.217-3.562-1.33-.143-.02-.243.138-.163.258.993 1.493 5.504 7.923 9.123 6.75.163-.053.214-.26.089-.379-.954-.905-4.313-4.102-5.486-5.299M21.136 6.1c-.405-.965-2.455-.805-3.127-.689-.105.019-.167.128-.128.227.433 1.09 2.854 6.735 6.808 7.488.192.037.34-.169.238-.337-.795-1.322-3.295-5.51-3.79-6.69" transform="translate(-904 -1171) translate(904 1171)"/>
                    <g transform="translate(-904 -1171) translate(904 1171) translate(15.928 16.644)">
                        <mask id="42k171i03d" fill="#fff">
                            <use xlink:href="#43yyp56iwc"/>
                        </mask>
                        <path fill="#0090BE" d="M2.535 11.004C1.703 10.386 8.784 5.544 4.54 0c0 0 .874 1.962-2.623 5.118-3.498 3.156-1.607 7.143.896 8.018 2.623.917 9.383-.81 3.817-9.49 1.109 4.479-2.772 8.339-4.095 7.358" mask="url(#42k171i03d)"/>
                    </g>
                </g>
                <path fill="#0090BE" fill-rule="nonzero" d="M50.555 19.202v-6.19h6.055v-2.213h-6.055V6.843h6.695V4.63h-9.335v14.572h2.64zm12.123.22c.57 0 1.066-.079 1.49-.238.425-.159.779-.37 1.06-.633.283-.263.503-.547.66-.85h.084v1.501h2.477v-7.315c0-.725-.132-1.33-.395-1.814-.264-.484-.611-.867-1.043-1.15-.431-.281-.908-.484-1.43-.607-.522-.124-1.046-.185-1.572-.185-.764 0-1.461.112-2.092.338-.631.225-1.165.562-1.601 1.01-.437.448-.75 1.004-.94 1.668l2.405.342c.129-.375.376-.7.744-.975s.867-.413 1.498-.413c.598 0 1.055.148 1.373.442.318.294.477.709.477 1.245v.043c0 .246-.091.428-.274.544-.183.116-.473.201-.872.256-.398.055-.918.115-1.558.181-.531.057-1.045.149-1.54.274-.496.126-.94.31-1.335.552-.393.242-.704.564-.932.968-.227.403-.341.913-.341 1.53 0 .716.16 1.318.48 1.807.32.488.757.857 1.31 1.106.552.25 1.174.374 1.867.374zm.669-1.892c-.536 0-.977-.121-1.324-.363-.346-.242-.519-.6-.519-1.074 0-.332.088-.604.263-.815.176-.211.415-.376.719-.495.303-.118.647-.204 1.032-.256l.604-.085c.233-.033.468-.071.705-.114.237-.043.452-.092.644-.15.192-.056.328-.118.409-.184v1.288c0 .403-.103.775-.31 1.117-.206.341-.499.615-.878.821-.38.207-.828.31-1.345.31zm8.997-10.808c.408 0 .757-.137 1.05-.41.29-.272.437-.6.437-.985 0-.389-.146-.72-.438-.993-.292-.272-.641-.409-1.05-.409-.407 0-.758.137-1.053.41-.294.272-.44.603-.44.992 0 .384.145.713.437.986.292.272.644.409 1.057.409zm1.28 12.48V8.272H71.05v10.93h2.575zm5.22 0v-6.425c0-.465.107-.875.32-1.231.214-.356.507-.635.88-.836.372-.202.793-.303 1.262-.303.218 0 .445.016.68.047.234.03.406.065.516.103v-2.37c-.119-.023-.267-.041-.445-.053-.178-.012-.338-.018-.48-.018-.627 0-1.183.172-1.669.516-.486.344-.829.831-1.028 1.462h-.114V8.273h-2.498v10.93h2.576zm9.427.192c.626 0 1.145-.104 1.558-.313.413-.209.745-.461.996-.758.252-.296.444-.577.577-.843h.156v1.722h2.533V4.63h-2.583v5.45h-.106c-.133-.265-.32-.549-.563-.85-.242-.301-.569-.56-.982-.776-.412-.216-.939-.323-1.58-.323-.839 0-1.6.214-2.283.643-.683.43-1.225 1.063-1.626 1.9-.4.838-.601 1.863-.601 3.078 0 1.2.197 2.22.59 3.06.394.839.93 1.48 1.608 1.92.679.442 1.447.662 2.306.662zm.718-2.113c-.564 0-1.04-.153-1.426-.459-.387-.306-.679-.726-.875-1.26-.197-.533-.296-1.141-.296-1.825 0-.678.098-1.28.292-1.807.194-.526.484-.94.868-1.238.384-.299.863-.448 1.437-.448.555 0 1.024.144 1.406.434.382.29.67.695.868 1.217.197.521.295 1.136.295 1.842 0 .707-.1 1.326-.299 1.858-.199.53-.49.945-.875 1.241-.384.297-.85.445-1.395.445zm10.433 1.921v-6.425c0-.465.107-.875.32-1.231.214-.356.507-.635.879-.836.372-.202.793-.303 1.263-.303.218 0 .445.016.68.047.234.03.406.065.515.103v-2.37c-.118-.023-.267-.041-.444-.053-.178-.012-.338-.018-.48-.018-.627 0-1.183.172-1.67.516-.485.344-.828.831-1.027 1.462h-.114V8.273h-2.498v10.93h2.576zm10.138.214c1.067 0 1.992-.235 2.775-.705.783-.47 1.389-1.126 1.818-1.97.43-.845.644-1.832.644-2.96 0-1.13-.215-2.119-.644-2.968-.43-.85-1.035-1.508-1.818-1.978-.783-.47-1.708-.704-2.775-.704s-1.992.234-2.775.704c-.783.47-1.389 1.129-1.818 1.978-.43.85-.644 1.838-.644 2.967 0 1.13.215 2.116.644 2.96.43.845 1.035 1.502 1.818 1.971.783.47 1.708.705 2.775.705zm.014-2.064c-.593 0-1.085-.16-1.476-.48-.392-.32-.683-.75-.875-1.292-.192-.54-.289-1.143-.289-1.807 0-.669.097-1.275.289-1.818.192-.543.483-.976.875-1.299.391-.322.883-.483 1.476-.483.579 0 1.063.16 1.452.483.389.323.68.756.871 1.3.193.542.289 1.148.289 1.817 0 .664-.096 1.267-.289 1.807-.192.541-.482.972-.871 1.292-.39.32-.873.48-1.452.48zm9.976 5.949v-5.82h.107c.137.265.33.546.58.842.249.297.58.55.992.758.413.209.932.313 1.559.313.858 0 1.627-.22 2.305-.662.678-.44 1.214-1.081 1.608-1.92.394-.84.59-1.86.59-3.06 0-1.215-.2-2.24-.6-3.078-.401-.837-.942-1.47-1.623-1.9-.68-.429-1.443-.643-2.288-.643-.64 0-1.166.107-1.58.323-.412.216-.74.475-.981.776-.242.301-.43.585-.562.85h-.15V8.273h-2.533V23.3h2.576zm2.519-6.02c-.546 0-1.01-.148-1.391-.445-.382-.296-.674-.71-.875-1.241-.202-.532-.303-1.15-.303-1.858 0-.706.099-1.32.296-1.842.196-.522.487-.928.871-1.217.384-.29.852-.434 1.402-.434.574 0 1.053.15 1.437.448.384.299.674.712.868 1.238.195.527.292 1.13.292 1.807 0 .684-.098 1.292-.295 1.826-.197.533-.488.953-.872 1.259-.384.306-.86.459-1.43.459zm9.01 2.078c.28 0 .537-.07.771-.21.235-.14.425-.329.57-.566.144-.237.22-.5.224-.79-.005-.427-.163-.792-.473-1.096-.311-.303-.675-.455-1.093-.455-.431 0-.801.152-1.11.455-.308.304-.46.67-.455 1.096-.005.437.147.807.455 1.11.309.304.679.456 1.11.456zm5.525-12.637c.408 0 .758-.137 1.05-.41.292-.272.437-.6.437-.985 0-.389-.145-.72-.437-.993-.292-.272-.642-.409-1.05-.409-.408 0-.759.137-1.053.41-.294.272-.44.603-.44.992 0 .384.145.713.437.986.291.272.644.409 1.056.409zm1.281 12.48V8.272h-2.576v10.93h2.576zm7.412.214c1.067 0 1.992-.235 2.775-.705.782-.47 1.388-1.126 1.817-1.97.43-.845.644-1.832.644-2.96 0-1.13-.214-2.119-.644-2.968-.429-.85-1.035-1.508-1.817-1.978-.783-.47-1.708-.704-2.775-.704-1.068 0-1.993.234-2.776.704-.782.47-1.388 1.129-1.817 1.978-.43.85-.644 1.838-.644 2.967 0 1.13.214 2.116.644 2.96.429.845 1.035 1.502 1.817 1.971.783.47 1.708.705 2.776.705zm.014-2.064c-.593 0-1.085-.16-1.477-.48-.391-.32-.683-.75-.875-1.292-.192-.54-.288-1.143-.288-1.807 0-.669.096-1.275.288-1.818.192-.543.484-.976.875-1.299.392-.322.884-.483 1.477-.483.578 0 1.062.16 1.451.483.39.323.68.756.872 1.3.192.542.288 1.148.288 1.817 0 .664-.096 1.267-.288 1.807-.192.541-.483.972-.872 1.292-.389.32-.873.48-1.451.48z" transform="translate(-904 -1171) translate(904 1171)"/>
            </g>
        </g>
    </g>
</svg>
