<svg xmlns="http://www.w3.org/2000/svg" xmlns:xlink="http://www.w3.org/1999/xlink" width="150" height="35" viewBox="0 0 150 35">
    <defs>
        <path id="jed0exkvua" d="M0 34.474L150 34.474 150 0 0 0z"/>
        <path id="ybse6c8xnc" d="M0 34.474L150 34.474 150 0 0 0z"/>
        <path id="wp3bsnlwne" d="M0 34.474L150 34.474 150 0 0 0z"/>
        <path id="dfs96p1omg" d="M0 34.474L150 34.474 150 0 0 0z"/>
        <path id="mss153zd6i" d="M0 34.474L150 34.474 150 0 0 0z"/>
        <path id="stfegdy9zk" d="M0 34.474L150 34.474 150 0 0 0z"/>
        <path id="uhbtxq1dqm" d="M0 34.474L150 34.474 150 0 0 0z"/>
        <path id="rcpfgzgbjo" d="M0 34.474L150 34.474 150 0 0 0z"/>
        <path id="2fhgqaj7qq" d="M0 34.474L150 34.474 150 0 0 0z"/>
        <path id="uq6hgqeo8s" d="M0 34.474L150 34.474 150 0 0 0z"/>
        <path id="t7i1z3bjuu" d="M0 34.474L150 34.474 150 0 0 0z"/>
        <path id="h7d3g4ntgw" d="M0 34.474L150 34.474 150 0 0 0z"/>
        <path id="r5sz4v8p7y" d="M0 34.474L150 34.474 150 0 0 0z"/>
        <path id="wp71ofqw5A" d="M0 34.474L150 34.474 150 0 0 0z"/>
        <path id="7xbhqahfqC" d="M0 34.474L150 34.474 150 0 0 0z"/>
    </defs>
    <g fill="none" fill-rule="evenodd">
        <g>
            <g>
                <g>
                    <path fill="#15003E" fill-rule="nonzero" d="M44.27 20.384h6.262v.5c0 1.139-.134 2.147-.402 3.023-.262.812-.704 1.57-1.325 2.277-1.407 1.584-3.197 2.375-5.37 2.375-2.119 0-3.934-.765-5.445-2.297-1.512-1.537-2.268-3.382-2.268-5.535 0-2.198.769-4.063 2.307-5.594 1.537-1.538 3.408-2.306 5.614-2.306 1.183 0 2.289.24 3.316.722.982.483 1.947 1.266 2.896 2.35l-1.63 1.56c-1.243-1.655-2.758-2.483-4.543-2.483-1.603 0-2.948.553-4.034 1.659-1.086 1.085-1.63 2.447-1.63 4.082 0 1.688.606 3.079 1.817 4.172 1.131 1.014 2.358 1.52 3.68 1.52 1.125 0 2.136-.378 3.032-1.135.897-.764 1.397-1.677 1.502-2.741h-3.778v-2.15z" transform="translate(-164 -1169) translate(164 1169)"/>
                    <g transform="translate(-164 -1169) translate(164 1169)">
                        <mask id="jrpmqbg4ab" fill="#fff">
                            <use xlink:href="#jed0exkvua"/>
                        </mask>
                        <path fill="#15003E" fill-rule="nonzero" d="M58.633 28.274L60.92 28.274 60.92 13.121 58.633 13.121z" mask="url(#jrpmqbg4ab)"/>
                    </g>
                    <g transform="translate(-164 -1169) translate(164 1169)">
                        <mask id="2y8usckzwd" fill="#fff">
                            <use xlink:href="#ybse6c8xnc"/>
                        </mask>
                        <path fill="#15003E" fill-rule="nonzero" d="M73.969 15.27L73.969 28.274 71.682 28.274 71.682 15.27 68.198 15.27 68.198 13.121 77.443 13.121 77.443 15.27z" mask="url(#2y8usckzwd)"/>
                    </g>
                    <g transform="translate(-164 -1169) translate(164 1169)">
                        <mask id="nufuvgo1bf" fill="#fff">
                            <use xlink:href="#wp3bsnlwne"/>
                        </mask>
                        <path fill="#15003E" fill-rule="nonzero" d="M95.369 13.93v2.705c-1.322-1.106-2.69-1.659-4.102-1.659-1.558 0-2.87.56-3.936 1.678-1.073 1.112-1.61 2.473-1.61 4.083 0 1.59.537 2.931 1.61 4.024s2.388 1.64 3.945 1.64c.805 0 1.488-.132 2.052-.394.313-.13.639-.307.976-.53.337-.222.692-.49 1.065-.805v2.764c-1.309.742-2.683 1.113-4.122 1.113-2.166 0-4.014-.755-5.546-2.267-1.524-1.524-2.286-3.363-2.286-5.515 0-1.93.638-3.651 1.914-5.163 1.57-1.851 3.602-2.778 6.094-2.778 1.361 0 2.677.369 3.946 1.105" mask="url(#nufuvgo1bf)"/>
                    </g>
                    <g transform="translate(-164 -1169) translate(164 1169)">
                        <mask id="2oqk6lkdhh" fill="#fff">
                            <use xlink:href="#dfs96p1omg"/>
                        </mask>
                        <path fill="#0FCE7C" fill-rule="nonzero" d="M105.24 18.24c0 1.672.562 3.048 1.687 4.128 1.119 1.078 2.411 1.617 3.877 1.617 1.59 0 2.93-.55 4.024-1.647 1.093-1.111 1.639-2.465 1.639-4.06 0-1.614-.54-2.968-1.62-4.06-1.073-1.098-2.4-1.647-3.984-1.647-1.577 0-2.909.55-3.995 1.648-1.086 1.085-1.629 2.425-1.629 4.02m-2.306-.024c0-2.133.781-3.966 2.345-5.497 1.557-1.53 3.429-2.296 5.614-2.296 2.16 0 4.01.772 5.555 2.316 1.551 1.544 2.326 3.399 2.326 5.565 0 2.178-.779 4.027-2.336 5.545-1.563 1.525-3.451 2.287-5.662 2.287-1.957 0-3.713-.678-5.271-2.032-1.714-1.498-2.571-3.46-2.571-5.888" mask="url(#2oqk6lkdhh)"/>
                    </g>
                    <g transform="translate(-164 -1169) translate(164 1169)">
                        <mask id="gyrpjbveyj" fill="#fff">
                            <use xlink:href="#mss153zd6i"/>
                        </mask>
                        <path fill="#15003E" fill-rule="nonzero" d="M125.508 28.274L127.795 28.274 127.795 13.121 125.508 13.121z" mask="url(#gyrpjbveyj)"/>
                    </g>
                    <g transform="translate(-164 -1169) translate(164 1169)">
                        <mask id="nl5gg0578l" fill="#fff">
                            <use xlink:href="#stfegdy9zk"/>
                        </mask>
                        <path fill="#15003E" fill-rule="nonzero" d="M136.662 28.274L136.662 12.09 147.714 23.652 147.714 13.121 150 13.121 150 29.197 138.949 17.665 138.949 28.274z" mask="url(#nl5gg0578l)"/>
                    </g>
                    <g transform="translate(-164 -1169) translate(164 1169)">
                        <mask id="e3zvz36sen" fill="#fff">
                            <use xlink:href="#uhbtxq1dqm"/>
                        </mask>
                        <path fill="#15003E" fill-rule="nonzero" d="M14.592 7.407V4.176c0-.513-.417-.929-.93-.929-.512 0-.928.416-.928.929v3.302c.472-.052.952-.081 1.438-.081.14 0 .28.006.42.01" mask="url(#e3zvz36sen)"/>
                    </g>
                    <g transform="translate(-164 -1169) translate(164 1169)">
                        <mask id="knapqmxnhp" fill="#fff">
                            <use xlink:href="#rcpfgzgbjo"/>
                        </mask>
                        <path fill="#0FCE7C" fill-rule="nonzero" d="M19.086 14.943l.15.146c1.42 1.38 2.203 3.232 2.203 5.213 0 1.898-.727 3.694-2.047 5.057l-.073.074.6.583 1.5 1.186c1.78-1.868 2.761-4.316 2.761-6.9 0-2.708-1.063-5.24-2.993-7.136l-.942.887-1.16.89z" mask="url(#knapqmxnhp)"/>
                    </g>
                    <g transform="translate(-164 -1169) translate(164 1169)">
                        <mask id="fee8d0e93r" fill="#fff">
                            <use xlink:href="#2fhgqaj7qq"/>
                        </mask>
                        <path fill="#0FCE7C" fill-rule="nonzero" d="M21.288 27.34l.072-.074c.02-.02.039-.043.058-.063l-1.499-1.188 1.369 1.326z" mask="url(#fee8d0e93r)"/>
                    </g>
                    <g transform="translate(-164 -1169) translate(164 1169)">
                        <mask id="rvze1emzgt" fill="#fff">
                            <use xlink:href="#uq6hgqeo8s"/>
                        </mask>
                        <path fill="#15003E" fill-rule="nonzero" d="M23.297 11.177L15.933 17.981" mask="url(#rvze1emzgt)"/>
                    </g>
                    <g transform="translate(-164 -1169) translate(164 1169)">
                        <mask id="8p42xe206v" fill="#fff">
                            <use xlink:href="#t7i1z3bjuu"/>
                        </mask>
                        <path fill="#15003E" fill-rule="nonzero" d="M22.432 31.94h-8.26c-6.418 0-11.64-5.22-11.64-11.638S7.755 8.664 14.173 8.664c2.664 0 5.192.888 7.244 2.527l-5.671 5.239c-.486-.198-1.017-.308-1.574-.308-2.304 0-4.18 1.875-4.18 4.18 0 2.305 1.876 4.18 4.18 4.18.411 0 .808-.06 1.182-.17l7.079 5.327v2.302zm-8.26-9.99c-.908 0-1.647-.74-1.647-1.648 0-.908.739-1.647 1.646-1.647.91 0 1.648.739 1.648 1.647 0 .909-.739 1.647-1.648 1.647zm4.18-1.648c0-.82-.239-1.586-.648-2.233l3.382-3.124.028.03 4.002-3.772-.923-.922c-2.677-2.677-6.235-4.15-10.022-4.15-7.814 0-14.17 6.356-14.17 14.171 0 7.737 6.232 14.042 13.941 14.166v.006h11.023v-6.098l-7.431-5.594c.514-.694.818-1.552.818-2.48z" mask="url(#8p42xe206v)"/>
                    </g>
                    <g transform="translate(-164 -1169) translate(164 1169)">
                        <mask id="zd67do8cpx" fill="#fff">
                            <use xlink:href="#h7d3g4ntgw"/>
                        </mask>
                        <path fill="#25E899" fill-rule="nonzero" d="M27.894 4.873L26.879 5.888 25.864 4.873 26.879 3.858z" mask="url(#zd67do8cpx)"/>
                    </g>
                    <g transform="translate(-164 -1169) translate(164 1169)">
                        <mask id="lh10vuv8iz" fill="#fff">
                            <use xlink:href="#r5sz4v8p7y"/>
                        </mask>
                        <path fill="#25E899" fill-rule="nonzero" d="M18.228 4.993L17.743 5.478 17.257 4.993 17.743 4.508z" mask="url(#lh10vuv8iz)"/>
                    </g>
                    <g transform="translate(-164 -1169) translate(164 1169)">
                        <mask id="jfkirypa3B" fill="#fff">
                            <use xlink:href="#wp71ofqw5A"/>
                        </mask>
                        <path fill="#25E899" fill-rule="nonzero" d="M23.27.731c0-.404-.328-.731-.732-.731-.404 0-.732.327-.732.731 0 .404.328.732.732.732.404 0 .731-.328.731-.732" mask="url(#jfkirypa3B)"/>
                    </g>
                    <g transform="translate(-164 -1169) translate(164 1169)">
                        <mask id="k2510pdoeD" fill="#fff">
                            <use xlink:href="#7xbhqahfqC"/>
                        </mask>
                        <path fill="#15003E" fill-rule="nonzero" d="M9.266 14.982c-.513 0-.929-.416-.929-.93V4.177c0-.513.416-.929.93-.929.512 0 .928.416.928.93v9.876c0 .513-.416.929-.929.929" mask="url(#k2510pdoeD)"/>
                    </g>
                </g>
            </g>
        </g>
    </g>
</svg>
