<?xml version="1.0" encoding="utf-8"?>
<!-- Generator: Adobe Illustrator 24.0.1, SVG Export Plug-In . SVG Version: 6.00 Build 0)  -->
<svg version="1.1" id="Layer_2_copy_2" xmlns="http://www.w3.org/2000/svg" xmlns:xlink="http://www.w3.org/1999/xlink" x="0px"
	 y="0px" viewBox="0 0 24 24" style="enable-background:new 0 0 24 24;" xml:space="preserve">
<style type="text/css">
	.st0{fill:#FFFFFF;}
</style>
<g>
	<path class="st0" d="M12,0C5.4,0,0,5.4,0,12s5.4,12,12,12s12-5.4,12-12S18.6,0,12,0z M21,5.7c1,1.5,1.7,3.2,1.9,5L21,8.8V5.7z
		 M21,13.7l1.5,1.5c-0.3,1.1-0.9,2.1-1.5,3.1V13.7z M21,12.3v-2.1l2,2c0,0.6-0.1,1.3-0.2,1.9L21,12.3z M7.6,17.4
		c-1-0.9-1.6-2.3-1.6-3.7V5.7c0.7-0.6,1.4-1,2.2-1.4c0.5,1,2,1.7,3.8,1.7c1.8,0,3.3-0.7,3.8-1.7c0.8,0.3,1.5,0.8,2.2,1.4v8.1
		c0,1.4-0.6,2.7-1.6,3.7L13.5,20c-0.9,0.8-2.2,0.8-3.1,0L7.6,17.4z M8,19.1v3.2c-0.7-0.3-1.4-0.6-2-1V17c0.3,0.4,0.6,0.8,1,1.1
		L8,19.1z M9.2,3.9C10.1,3.7,11,3.5,12,3.5c1,0,1.9,0.2,2.8,0.4C14.5,4.5,13.4,5,12,5C10.6,5,9.5,4.5,9.2,3.9z M17,18.2
		c0.4-0.3,0.7-0.7,1-1.1v4.2c-0.6,0.4-1.3,0.8-2,1v-3.2L17,18.2z M18,2.8v1.6c-1.8-1.2-3.8-1.9-6-1.9S7.8,3.2,6,4.4V2.8
		C7.7,1.7,9.8,1,12,1S16.3,1.7,18,2.8z M3,12.3l-1.8,1.8C1.1,13.5,1,12.8,1,12.2l2-2V12.3z M3,13.7v4.6c-0.7-0.9-1.2-2-1.5-3.1
		L3,13.7z M3,8.8l-1.9,1.9C1.3,8.9,2,7.1,3,5.7V8.8z M4,19.5V4.5c0.3-0.3,0.6-0.7,1-1v17C4.6,20.2,4.3,19.9,4,19.5z M9,22.6V20
		l0.8,0.7c0.6,0.6,1.4,0.8,2.2,0.8c0.8,0,1.6-0.3,2.2-0.8L15,20v2.6c-1,0.3-2,0.4-3,0.4S10,22.8,9,22.6z M19,20.5v-17
		c0.4,0.3,0.7,0.6,1,1v15.1C19.7,19.9,19.4,20.2,19,20.5z"/>
	<path class="st0" d="M13.5,10.8h1.6c1,0,1.9-0.9,1.9-1.9V8.8c0-0.3-0.2-0.5-0.5-0.5h-1.6c-1,0-1.9,0.9-1.9,1.9v0.1
		C13,10.5,13.2,10.8,13.5,10.8z M14.9,9.2h1c-0.1,0.3-0.5,0.5-0.8,0.5h-1C14.2,9.5,14.5,9.2,14.9,9.2z"/>
	<path class="st0" d="M14.7,16.2c0.1-0.2,0-0.5-0.2-0.7c-0.5-0.3-1.6-0.7-1.6-0.7c-0.3-0.1-0.6-0.1-0.9,0.1
		c-0.4-0.2-0.7-0.2-0.9-0.1c0,0-1.1,0.5-1.6,0.7c-0.2,0.1-0.3,0.4-0.2,0.7c0,0.1,0.8,1.5,2.7,1.5S14.7,16.3,14.7,16.2z M11.4,15.8
		c0,0,0,0,0.1,0c0.1,0.1,0.2,0.1,0.5,0.1c0.2,0,0.3-0.1,0.4-0.1c0.1,0,0.1,0,0.1,0c0.2,0.1,0.6,0.2,0.9,0.4
		c-0.3,0.3-0.8,0.6-1.5,0.6c-0.7,0-1.2-0.3-1.5-0.6C10.9,16,11.3,15.8,11.4,15.8z"/>
	<path class="st0" d="M11,10.2v-0.1c0-1-0.9-1.9-1.9-1.9H7.5C7.2,8.2,7,8.5,7,8.8v0.1c0,1,0.9,1.9,1.9,1.9h1.6
		C10.8,10.8,11,10.5,11,10.2z M8.9,9.8c-0.4,0-0.7-0.2-0.8-0.5h1c0.4,0,0.7,0.2,0.8,0.5H8.9z"/>
</g>
</svg>
