<svg xmlns="http://www.w3.org/2000/svg" width="106" height="35" viewBox="0 0 106 35">
    <g fill="none" fill-rule="evenodd">
        <g>
            <g>
                <path fill="#000" d="M0 0L105.778 0 105.778 35 0 35z" transform="translate(-1170 -1168) translate(1170 1168)"/>
                <path fill="#FFF" fill-rule="nonzero" d="M16.145 11.76c.46 0 .843-.146 1.148-.439.305-.292.457-.656.457-1.092 0-.435-.152-.8-.457-1.092-.305-.292-.687-.438-1.148-.438-.46 0-.843.146-1.148.438-.305.293-.457.657-.457 1.092 0 .436.152.8.457 1.092.305.293.688.439 1.148.439zm1.288 11.573V12.992H14.82v10.341h2.613zm7.638.168c.771 0 1.45-.155 2.035-.466.584-.311 1.039-.722 1.362-1.232v1.53h2.65V9.52h-2.65v4.91c-.36-.486-.846-.875-1.456-1.167-.61-.293-1.25-.439-1.922-.439-.884 0-1.687.218-2.408.653-.722.436-1.292 1.058-1.708 1.867-.417.809-.626 1.736-.626 2.781 0 1.058.209 1.995.626 2.81.416.815.986 1.446 1.708 1.894.721.448 1.518.672 2.389.672zm.672-2.296c-.473 0-.918-.124-1.335-.373-.417-.249-.753-.607-1.008-1.073-.255-.467-.382-1.011-.382-1.634 0-.622.127-1.16.382-1.614.255-.455.588-.8.999-1.036.41-.237.859-.355 1.344-.355.485 0 .94.121 1.363.364.423.243.759.591 1.008 1.045.248.455.373.999.373 1.634 0 .634-.125 1.179-.373 1.633-.25.454-.585.803-1.008 1.045-.424.243-.878.364-1.363.364zm13.462 2.296c1.232 0 2.27-.32 3.117-.961.846-.64 1.419-1.46 1.717-2.455h-2.818c-.411.834-1.102 1.251-2.072 1.251-.672 0-1.239-.212-1.699-.635-.46-.423-.722-1.008-.784-1.754h7.56c.05-.299.075-.635.075-1.008 0-1.008-.215-1.901-.644-2.679-.43-.778-1.033-1.378-1.811-1.801-.778-.423-1.658-.635-2.641-.635-1.02 0-1.923.218-2.707.653-.784.436-1.394 1.058-1.83 1.867-.435.809-.653 1.748-.653 2.819 0 1.057.221 1.99.663 2.8.442.809 1.058 1.434 1.848 1.876.79.441 1.683.662 2.679.662zm2.389-6.309h-4.91c.1-.697.37-1.241.813-1.633.441-.392.986-.588 1.633-.588.684 0 1.263.202 1.736.606.473.405.716.943.728 1.615zm8.235 6.141v-5.712c0-.821.209-1.453.625-1.894.417-.442.987-.663 1.708-.663.71 0 1.27.22 1.68.663.411.441.616 1.073.616 1.894v5.712h2.614v-6.066c0-1.394-.38-2.48-1.139-3.258-.759-.777-1.755-1.166-2.987-1.166-.647 0-1.24.127-1.782.382s-.986.607-1.335 1.055v-1.288h-2.613v10.341h2.613zm14.769.168c.771 0 1.452-.158 2.044-.476.59-.317 1.054-.718 1.39-1.204v1.512h2.632V12.992h-2.632v1.475c-.348-.473-.812-.865-1.39-1.176-.58-.311-1.254-.467-2.026-.467-.883 0-1.683.218-2.398.653-.716.436-1.282 1.058-1.7 1.867-.416.809-.624 1.736-.624 2.781 0 1.058.208 1.995.625 2.81.417.815.983 1.446 1.699 1.894.715.448 1.508.672 2.38.672zm.69-2.296c-.473 0-.918-.124-1.334-.373-.417-.249-.753-.607-1.008-1.073-.256-.467-.383-1.011-.383-1.634 0-.622.127-1.16.383-1.614.255-.455.588-.8.998-1.036.41-.237.859-.355 1.344-.355.486 0 .94.121 1.363.364.423.243.759.591 1.008 1.045.249.455.373.999.373 1.634 0 .634-.124 1.179-.373 1.633-.249.454-.585.803-1.008 1.045-.423.243-.877.364-1.363.364zm11.558 2.128v-5.152c0-.958.208-1.63.625-2.016.417-.385 1.036-.578 1.858-.578h.69v-2.744c-.697 0-1.316.155-1.857.466-.541.311-.98.74-1.316 1.288v-1.605h-2.613v10.341h2.613zm9.43 4.891l6.402-15.232h-2.78l-2.708 7.224-2.669-7.224h-2.93l4.143 10.08-2.24 5.152h2.782z" transform="translate(-1170 -1168) translate(1170 1168)"/>
            </g>
        </g>
    </g>
</svg>
