<svg xmlns="http://www.w3.org/2000/svg" width="116" height="25" viewBox="0 0 116 25">
    <g fill="none" fill-rule="evenodd">
        <g>
            <g>
                <g>
                    <path fill="#F1663B" fill-rule="nonzero" d="M36.138 21.219c.416 0 .737-.117.962-.35.225-.234.337-.55.337-.95V4.644c0-.4-.116-.717-.35-.95-.233-.234-.55-.35-.95-.35-.383 0-.691.12-.925.362-.233.242-.35.554-.35.938v15.275c0 .4.117.716.35.95.234.233.542.35.925.35zm13.137-.125c2.85 0 5.058-.771 6.625-2.313 1.567-1.541 2.35-3.712 2.35-6.512 0-2.8-.783-4.967-2.35-6.5-1.567-1.534-3.775-2.3-6.625-2.3h-4.9c-.4 0-.712.112-.938.337-.224.225-.337.53-.337.913v15.125c0 .383.112.687.337.912.226.225.538.338.938.338h4.9zm-.15-2.15h-3.45V5.619h3.45c4.333 0 6.5 2.216 6.5 6.65 0 4.45-2.167 6.675-6.5 6.675zm24.662 2.15c.384 0 .68-.092.888-.275.208-.184.313-.442.313-.775 0-.684-.4-1.025-1.2-1.025h-7.95v-5.825h7.45c.383 0 .679-.092.887-.275.208-.184.313-.442.313-.775 0-.334-.105-.592-.313-.775-.208-.184-.504-.275-.888-.275h-7.45v-5.55h7.95c.384 0 .68-.088.888-.263.208-.175.313-.429.313-.762 0-.334-.105-.592-.313-.775-.208-.184-.504-.275-.888-.275h-9.2c-.4 0-.712.112-.937.337-.225.225-.337.53-.337.913v15.125c0 .383.112.687.337.912.225.225.538.338.938.338h9.2zm18.938.125c.367 0 .667-.121.9-.363.233-.241.35-.554.35-.937V4.644c0-.384-.112-.696-.337-.938-.226-.241-.521-.362-.888-.362s-.658.12-.875.362c-.217.242-.325.554-.325.938v12.15l-9.8-12.95c-.233-.334-.567-.5-1-.5-.367 0-.667.12-.9.362-.233.242-.35.554-.35.938v15.275c0 .4.108.716.325.95.217.233.508.35.875.35s.662-.121.888-.363c.225-.241.337-.554.337-.937V7.794l9.8 12.925c.233.333.567.5 1 .5zm21.338 0c.316 0 .604-.109.862-.325.258-.217.388-.484.388-.8 0-.134-.042-.3-.126-.5l-7.05-15.425c-.116-.267-.304-.475-.562-.625-.258-.15-.53-.225-.813-.225-.283 0-.554.075-.812.225-.258.15-.446.358-.563.625l-7.05 15.425c-.083.2-.124.366-.124.5 0 .316.129.583.387.8.258.216.554.325.888.325.216 0 .424-.063.624-.188s.35-.304.45-.537l1.65-3.75h9.15l1.65 3.75c.1.233.246.412.438.537.192.125.396.188.612.188zm-3.6-6.525h-7.325l3.65-8.275 3.675 8.275z" transform="translate(-674 -1173) translate(674 1173)"/>
                    <path fill="#F1663B" d="M3.846 0H25.06c1.338 0 1.823.14 2.312.4.488.262.872.646 1.134 1.135.261.489.4.974.4 2.31v17.31c0 1.336-.139 1.821-.4 2.31-.262.49-.646.873-1.134 1.134-.49.262-.974.401-2.312.401H3.846c-1.337 0-1.822-.14-2.311-.4-.49-.262-.873-.646-1.134-1.135-.262-.489-.401-.974-.401-2.31V3.844c0-1.336.14-1.821.4-2.31.262-.49.646-.873 1.135-1.134C2.024.139 2.509 0 3.845 0z" transform="translate(-674 -1173) translate(674 1173)"/>
                    <path fill="#FFF" d="M5.148 6.469l18.81-2.378-1.584 13.046H17.11l-7.088 5.235.542-4.186H7.665L5.148 6.47z" transform="translate(-674 -1173) translate(674 1173)"/>
                </g>
            </g>
        </g>
    </g>
</svg>
