<svg xmlns="http://www.w3.org/2000/svg" xmlns:xlink="http://www.w3.org/1999/xlink" width="95" height="95" viewBox="0 0 95 95">
    <defs>
        <path id="mbjigjvl3a" d="M0 0L94.434 0 94.434 94.434 0 94.434z"/>
    </defs>
    <g fill="none" fill-rule="evenodd">
        <g>
            <g>
                <g transform="translate(-100 -603) translate(100 603)">
                    <mask id="gsizygnnrb" fill="#fff">
                        <use xlink:href="#mbjigjvl3a"/>
                    </mask>
                    <path fill="#FFA366" d="M94.434 47.217c0 26.077-21.14 47.218-47.217 47.218C21.14 94.435 0 73.294 0 47.217 0 21.14 21.14 0 47.217 0c26.077 0 47.217 21.14 47.217 47.217" mask="url(#gsizygnnrb)"/>
                </g>
                <path fill="#FFF" d="M53.831 30.187c1.826 0 3.307 1.48 3.307 3.307 0 1.826-1.48 3.307-3.306 3.307-1.828 0-3.309-1.48-3.309-3.307s1.481-3.307 3.308-3.307m-13.229 0c1.828 0 3.309 1.48 3.309 3.307 0 1.826-1.482 3.307-3.309 3.307-1.825 0-3.305-1.48-3.305-3.307s1.48-3.307 3.306-3.307M53.83 43.415c1.826 0 3.307 1.48 3.307 3.306 0 1.827-1.48 3.308-3.306 3.308-1.828 0-3.309-1.48-3.309-3.308 0-1.826 1.481-3.306 3.308-3.306m-13.229 0c1.828 0 3.309 1.48 3.309 3.306 0 1.827-1.482 3.308-3.309 3.308-1.825 0-3.305-1.48-3.305-3.308 0-1.826 1.48-3.306 3.306-3.306M53.83 56.642c1.826 0 3.307 1.482 3.307 3.308 0 1.826-1.48 3.306-3.306 3.306-1.828 0-3.309-1.48-3.309-3.306s1.481-3.308 3.308-3.308m-13.229 0c1.828 0 3.309 1.482 3.309 3.308 0 1.826-1.482 3.306-3.309 3.306-1.825 0-3.305-1.48-3.305-3.306s1.48-3.308 3.306-3.308" transform="translate(-100 -603) translate(100 603)"/>
            </g>
        </g>
    </g>
</svg>
