<svg xmlns="http://www.w3.org/2000/svg" xmlns:xlink="http://www.w3.org/1999/xlink" width="95" height="95" viewBox="0 0 95 95">
    <defs>
        <path id="04qoaeurca" d="M0 0L94.434 0 94.434 94.434 0 94.434z"/>
    </defs>
    <g fill="none" fill-rule="evenodd">
        <g>
            <g>
                <g transform="translate(-540 -603) translate(540 603)">
                    <mask id="6z6vdtpzeb" fill="#fff">
                        <use xlink:href="#04qoaeurca"/>
                    </mask>
                    <path fill="#F66" d="M94.434 47.217c0 26.077-21.14 47.218-47.217 47.218C21.14 94.435 0 73.294 0 47.217 0 21.14 21.14 0 47.217 0c26.077 0 47.217 21.14 47.217 47.217" mask="url(#6z6vdtpzeb)"/>
                </g>
                <path fill="#FFF" d="M55.485 36.802c-1.826 0-3.307 1.48-3.307 3.307 0 1.826 1.48 3.306 3.307 3.306 1.826 0 3.307-1.48 3.307-3.306 0-1.827-1.481-3.307-3.307-3.307zm-16.535 0c-1.826 0-3.307 1.48-3.307 3.307 0 1.826 1.48 3.306 3.307 3.306 1.826 0 3.307-1.48 3.307-3.306 0-1.827-1.481-3.307-3.307-3.307zm16.535-3.308c3.652 0 6.613 2.96 6.613 6.615 0 3.652-2.961 6.613-6.613 6.613-3.653 0-6.614-2.961-6.614-6.613 0-3.654 2.96-6.615 6.614-6.615zm-16.535 0c3.653 0 6.614 2.96 6.614 6.615 0 3.652-2.961 6.613-6.614 6.613-3.652 0-6.613-2.961-6.613-6.613 0-3.654 2.96-6.615 6.613-6.615zm0 16.536h1.653c2.705 0 5.107 1.298 6.614 3.306 1.429-1.902 3.66-3.168 6.19-3.296l.425-.01h1.653c4.565 0 8.268 3.7 8.268 8.267 0 .913-.741 1.653-1.655 1.653-.847 0-1.546-.638-1.641-1.461l-.02-.484c-.145-2.508-2.153-4.515-4.661-4.66l-.291-.01h-1.653c-2.741 0-4.961 2.222-4.961 4.962 0 .848-.638 1.547-1.461 1.642l-.193.01c-.847 0-1.546-.637-1.642-1.46l-.02-.484c-.145-2.508-2.153-4.515-4.66-4.66l-.292-.01H38.95c-2.74 0-4.96 2.222-4.96 4.962 0 .913-.74 1.653-1.653 1.653-.915 0-1.655-.74-1.655-1.653 0-4.446 3.51-8.072 7.909-8.26l.359-.007z" transform="translate(-540 -603) translate(540 603)"/>
            </g>
        </g>
    </g>
</svg>
